static1_forces_filt12Hz.mot
version=1
nRows=28
nColumns=19
inDegrees=yes
endheader
time	R_ground_force_vx	R_ground_force_vy	R_ground_force_vz	R_ground_force_px	R_ground_force_py	R_ground_force_pz	R_ground_torque_x	R_ground_torque_y	R_ground_torque_z	L_ground_force_vx	L_ground_force_vy	L_ground_force_vz	L_ground_force_px	L_ground_force_py	L_ground_force_pz	L_ground_torque_x	L_ground_torque_y	L_ground_torque_z	
1.134500	 -3.927772	 13.725565	375.617768	  0.775887	  0.278808	  0.011500	  0.000000	  0.000000	 -1.526847	  1.334261	-12.441219	407.406607	  0.759393	  0.718508	  0.011500	  0.000000	  0.000000	 -0.944585
1.135000	 -3.920691	 13.724021	375.630477	  0.775883	  0.278810	  0.011500	  0.000000	  0.000000	 -1.526777	  1.342045	-12.439717	407.420464	  0.759393	  0.718508	  0.011500	  0.000000	  0.000000	 -0.942781
1.135500	 -3.913726	 13.722492	375.643536	  0.775878	  0.278812	  0.011500	  0.000000	  0.000000	 -1.526663	  1.349700	-12.438241	407.434227	  0.759393	  0.718508	  0.011500	  0.000000	  0.000000	 -0.941022
1.136000	 -3.906881	 13.720978	375.656935	  0.775874	  0.278814	  0.011500	  0.000000	  0.000000	 -1.526504	  1.357220	-12.436791	407.447883	  0.759393	  0.718508	  0.011500	  0.000000	  0.000000	 -0.939312
1.136500	 -3.900162	 13.719477	375.670662	  0.775870	  0.278816	  0.011500	  0.000000	  0.000000	 -1.526303	  1.364597	-12.435368	407.461421	  0.759393	  0.718508	  0.011500	  0.000000	  0.000000	 -0.937653
1.137000	 -3.893574	 13.717988	375.684707	  0.775866	  0.278819	  0.011500	  0.000000	  0.000000	 -1.526061	  1.371824	-12.433973	407.474832	  0.759393	  0.718508	  0.011500	  0.000000	  0.000000	 -0.936047
1.137500	 -3.887125	 13.716511	375.699057	  0.775862	  0.278821	  0.011500	  0.000000	  0.000000	 -1.525779	  1.378893	-12.432607	407.488107	  0.759393	  0.718508	  0.011500	  0.000000	  0.000000	 -0.934494
1.138000	 -3.880820	 13.715044	375.713701	  0.775858	  0.278823	  0.011500	  0.000000	  0.000000	 -1.525457	  1.385796	-12.431272	407.501236	  0.759393	  0.718508	  0.011500	  0.000000	  0.000000	 -0.932998
1.138500	 -3.874665	 13.713587	375.728628	  0.775854	  0.278825	  0.011500	  0.000000	  0.000000	 -1.525098	  1.392526	-12.429969	407.514211	  0.759393	  0.718509	  0.011500	  0.000000	  0.000000	 -0.931559
1.139000	 -3.868669	 13.712138	375.743825	  0.775850	  0.278827	  0.011500	  0.000000	  0.000000	 -1.524703	  1.399076	-12.428697	407.527023	  0.759393	  0.718509	  0.011500	  0.000000	  0.000000	 -0.930178
1.139500	 -3.862838	 13.710698	375.759281	  0.775847	  0.278829	  0.011500	  0.000000	  0.000000	 -1.524272	  1.405436	-12.427461	407.539663	  0.759393	  0.718509	  0.011500	  0.000000	  0.000000	 -0.928858
1.140000	 -3.857177	 13.709266	375.774986	  0.775843	  0.278831	  0.011500	  0.000000	  0.000000	 -1.523807	  1.411599	-12.426261	407.552123	  0.759394	  0.718509	  0.011500	  0.000000	  0.000000	 -0.927598
1.140500	 -3.851693	 13.707841	375.790927	  0.775839	  0.278833	  0.011500	  0.000000	  0.000000	 -1.523309	  1.417557	-12.425101	407.564392	  0.759394	  0.718509	  0.011500	  0.000000	  0.000000	 -0.926399
1.141000	 -3.846393	 13.706424	375.807092	  0.775836	  0.278835	  0.011500	  0.000000	  0.000000	 -1.522778	  1.423304	-12.423983	407.576462	  0.759395	  0.718509	  0.011500	  0.000000	  0.000000	 -0.925263
1.141500	 -3.841281	 13.705015	375.823469	  0.775832	  0.278837	  0.011500	  0.000000	  0.000000	 -1.522217	  1.428831	-12.422911	407.588322	  0.759395	  0.718510	  0.011500	  0.000000	  0.000000	 -0.924188
1.142000	 -3.836363	 13.703612	375.840045	  0.775829	  0.278838	  0.011500	  0.000000	  0.000000	 -1.521626	  1.434133	-12.421887	407.599962	  0.759396	  0.718510	  0.011500	  0.000000	  0.000000	 -0.923176
1.142500	 -3.831644	 13.702216	375.856810	  0.775825	  0.278840	  0.011500	  0.000000	  0.000000	 -1.521008	  1.439204	-12.420914	407.611374	  0.759397	  0.718510	  0.011500	  0.000000	  0.000000	 -0.922228
1.143000	 -3.827129	 13.700825	375.873748	  0.775822	  0.278842	  0.011500	  0.000000	  0.000000	 -1.520365	  1.444037	-12.419995	407.622547	  0.759397	  0.718511	  0.011500	  0.000000	  0.000000	 -0.921343
1.143500	 -3.822823	 13.699439	375.890849	  0.775818	  0.278843	  0.011500	  0.000000	  0.000000	 -1.519701	  1.448628	-12.419132	407.633470	  0.759398	  0.718511	  0.011500	  0.000000	  0.000000	 -0.920521
1.144000	 -3.818728	 13.698056	375.908098	  0.775815	  0.278845	  0.011500	  0.000000	  0.000000	 -1.519018	  1.452973	-12.418326	407.644135	  0.759399	  0.718511	  0.011500	  0.000000	  0.000000	 -0.919761
1.144500	 -3.814849	 13.696673	375.925481	  0.775812	  0.278846	  0.011500	  0.000000	  0.000000	 -1.518322	  1.457071	-12.417581	407.654531	  0.759400	  0.718512	  0.011500	  0.000000	  0.000000	 -0.919063
1.145000	 -3.811188	 13.695290	375.942984	  0.775808	  0.278847	  0.011500	  0.000000	  0.000000	 -1.517615	  1.460918	-12.416897	407.664646	  0.759401	  0.718512	  0.011500	  0.000000	  0.000000	 -0.918426
1.145500	 -3.807748	 13.693902	375.960591	  0.775805	  0.278849	  0.011500	  0.000000	  0.000000	 -1.516901	  1.464513	-12.416275	407.674470	  0.759402	  0.718513	  0.011500	  0.000000	  0.000000	 -0.917847
1.146000	 -3.804529	 13.692509	375.978287	  0.775802	  0.278850	  0.011500	  0.000000	  0.000000	 -1.516186	  1.467858	-12.415719	407.683991	  0.759403	  0.718514	  0.011500	  0.000000	  0.000000	 -0.917324
1.146500	 -3.801532	 13.691108	375.996052	  0.775799	  0.278851	  0.011500	  0.000000	  0.000000	 -1.515472	  1.470952	-12.415227	407.693197	  0.759405	  0.718514	  0.011500	  0.000000	  0.000000	 -0.916857
1.147000	 -3.798757	 13.689698	376.013870	  0.775795	  0.278852	  0.011500	  0.000000	  0.000000	 -1.514765	  1.473798	-12.414801	407.702075	  0.759406	  0.718515	  0.011500	  0.000000	  0.000000	 -0.916443
1.147500	 -3.796205	 13.688277	376.031720	  0.775792	  0.278853	  0.011500	  0.000000	  0.000000	 -1.514069	  1.476399	-12.414443	407.710610	  0.759407	  0.718515	  0.011500	  0.000000	  0.000000	 -0.916081
1.148000	 -3.793875	 13.686844	376.049585	  0.775789	  0.278853	  0.011500	  0.000000	  0.000000	 -1.513388	  1.478756	-12.414151	407.718789	  0.759408	  0.718516	  0.011500	  0.000000	  0.000000	 -0.915770
